<?xml version="1.0" standalone="no"?>
<!DOCTYPE svg PUBLIC "-//W3C//DTD SVG 20010904//EN"
 "http://www.w3.org/TR/2001/REC-SVG-20010904/DTD/svg10.dtd">
<svg version="1.0" xmlns="http://www.w3.org/2000/svg"
 width="445.000000pt" height="445.000000pt" viewBox="0 0 445.000000 445.000000"
 preserveAspectRatio="xMidYMid meet">
<metadata>
Created by potrace 1.15, written by Peter Selinger 2001-2017
</metadata>
<g transform="translate(0.000000,445.000000) scale(0.100000,-0.100000)"
fill="black" stroke="none">
<path d="M1837 4439 c-150 -35 -277 -173 -306 -333 -14 -79 -15 -1176 -1
-1228 6 -20 26 -50 46 -67 29 -26 43 -31 87 -31 58 0 107 24 129 62 10 18 14
144 18 568 5 529 6 546 26 591 26 55 77 108 130 135 38 18 70 19 1025 19 l986
0 48 -30 c57 -35 110 -100 125 -153 6 -25 10 -602 10 -1757 0 -1661 -1 -1721
-19 -1761 -28 -62 -84 -119 -144 -145 l-52 -24 -960 0 c-890 0 -963 1 -998 17
-62 28 -111 73 -143 130 l-29 53 -5 550 c-5 504 -7 553 -23 578 -27 42 -72 60
-134 55 -63 -5 -107 -40 -123 -97 -6 -22 -10 -261 -10 -606 0 -460 3 -583 15
-639 27 -127 104 -224 223 -284 l76 -37 1130 -3 c1015 -2 1135 -1 1185 14 142
41 255 159 291 304 8 32 10 575 8 1930 l-3 1885 -31 66 c-54 114 -138 190
-252 228 -61 21 -74 21 -1174 20 -612 -1 -1130 -5 -1151 -10z"/>
<path d="M755 3044 c-44 -22 -724 -703 -741 -741 -18 -41 -18 -115 0 -156 8
-18 172 -189 372 -389 387 -384 381 -379 470 -365 98 16 154 129 108 220 -9
18 -114 130 -232 250 l-216 217 1284 0 c1203 0 1287 1 1320 18 106 53 106 201
0 254 -33 17 -117 18 -1320 18 l-1285 0 217 218 c119 119 223 231 232 249 50
100 -26 223 -139 223 -22 0 -53 -7 -70 -16z"/>
</g>
</svg>
