<?xml version="1.0" encoding="iso-8859-1"?>
<!-- Generator: Adobe Illustrator 19.0.0, SVG Export Plug-In . SVG Version: 6.00 Build 0)  -->
<svg version="1.1" id="Capa_1" xmlns="http://www.w3.org/2000/svg" xmlns:xlink="http://www.w3.org/1999/xlink" x="0px" y="0px"
	 viewBox="0 0 512 512" style="enable-background:new 0 0 512 512;" xml:space="preserve">
<g  fill="black">
<g>
	<g>
		<path d="M336,206c-5.52,0-10,4.48-10,10s4.48,10,10,10c5.52,0,10-4.48,10-10S341.52,206,336,206z"/>
	</g>
</g>
<g>
	<g>
		<path d="M256,206c-5.52,0-10,4.48-10,10s4.48,10,10,10s10-4.48,10-10S261.52,206,256,206z"/>
	</g>
</g>
<g>
	<g>
		<path d="M176,206c-5.52,0-10,4.48-10,10s4.48,10,10,10s10-4.48,10-10S181.52,206,176,206z"/>
	</g>
</g>
<g>
	<g>
		<path d="M256,246c-5.522,0-10,4.477-10,10v186c0,5.523,4.478,10,10,10c5.522,0,10-4.477,10-10V256
			C266,250.477,261.522,246,256,246z"/>
	</g>
</g>
<g>
	<g>
		<path d="M337.07,246.057c-5.484-0.588-10.421,3.383-11.012,8.874l-20,186c-0.591,5.491,3.381,10.421,8.873,11.012
			c5.479,0.589,10.421-3.37,11.012-8.874l20-186C346.534,251.578,342.561,246.648,337.07,246.057z"/>
	</g>
</g>
<g>
	<g>
		<path d="M205.943,440.931l-20-186c-0.589-5.491-5.523-9.461-11.012-8.874c-5.491,0.591-9.464,5.521-8.873,11.012l20,186
			c0.589,5.479,5.508,9.465,11.012,8.874C202.561,451.352,206.534,446.422,205.943,440.931z"/>
	</g>
</g>
<g>
	<g>
		<path d="M416,86h-70V50c0-27.57-22.43-50-50-50h-80c-27.57,0-50,22.43-50,50v36H96c-27.57,0-50,22.43-50,50v20
			c0,5.523,4.478,10,10,10h31.089l36.9,319.514c1.785,15.1,14.592,26.486,29.791,26.486h204.44
			c15.199,0,28.006-11.387,29.794-26.513L424.911,166H456c5.522,0,10-4.477,10-10v-20C466,108.43,443.57,86,416,86z M186,50
			c0-16.542,13.458-30,30-30h80c16.542,0,30,13.458,30,30v36H186V50z M368.149,483.166c-0.596,5.036-4.864,8.834-9.93,8.834H153.78
			c-5.065,0-9.334-3.798-9.927-8.808L107.221,166h297.558L368.149,483.166z M446,146H95.876c-0.001,0-0.002,0-0.002,0H66v-10
			c0-16.542,13.458-30,30-30h320c16.542,0,30,13.458,30,30V146z"/>
	</g>
</g>
<g>
</g>
<g>
</g>
<g>
</g>
<g>
</g>
<g>
</g>
<g>
</g>
<g>
</g>
<g>
</g>
<g>
</g>
<g>
</g>
<g>
</g>
<g>
</g>
<g>
</g>
<g>
</g>
<g>
</g>
</g>
</svg>
